PathFileType	4	(X/Y/Z)	s04c0203.trc
DataRate	CameraRate	NumFrames	NumMarkers	Units	OrigDataRate	OrigDataStartFrame	OrigNumFrames
200	200	5	50	mm	200	0	2000
Frame#	Time	racr			lacr			c7			jug			rlel			rdr			llel			ldr			s2			lic			ric			lasi			rasi			rpsi			lpsi			rgt			lgt			rth1			rth2			rth3			rth4			rlfc			rmfc			rsh1			rsh2			rsh3			rsh4			rlmal			rmmal			rcal			rtoe			rmt5			lth1			lth2			lth4			lth3			llfc			lmfc			lsh1			lsh2			lsh3			lsh4			llmal			lmmal			lcal			ltoe			lmt5			SBIKE			LBIKE			RBIKE			
		X1	Y1	Z1	X2	Y2	Z2	X3	Y3	Z3	X4	Y4	Z4	X5	Y5	Z5	X6	Y6	Z6	X7	Y7	Z7	X8	Y8	Z8	X9	Y9	Z9	X10	Y10	Z10	X11	Y11	Z11	X12	Y12	Z12	X13	Y13	Z13	X14	Y14	Z14	X15	Y15	Z15	X16	Y16	Z16	X17	Y17	Z17	X18	Y18	Z18	X19	Y19	Z19	X20	Y20	Z20	X21	Y21	Z21	X22	Y22	Z22	X23	Y23	Z23	X24	Y24	Z24	X25	Y25	Z25	X26	Y26	Z26	X27	Y27	Z27	X28	Y28	Z28	X29	Y29	Z29	X30	Y30	Z30	X31	Y31	Z31	X32	Y32	Z32	X33	Y33	Z33	X34	Y34	Z34	X35	Y35	Z35	X36	Y36	Z36	X37	Y37	Z37	X38	Y38	Z38	X39	Y39	Z39	X40	Y40	Z40	X41	Y41	Z41	X42	Y42	Z42	X43	Y43	Z43	X44	Y44	Z44	X45	Y45	Z45	X46	Y46	Z46	X47	Y47	Z47	X48	Y48	Z48	X49	Y49	Z49	X50	Y50	Z50	
0	0.0000	471.324704	1461.994127	-133.220272	471.300489	1443.637605	-434.667907	454.996370	1508.452556	-288.560210	461.291034	1361.046989	-282.931284	489.700255	1152.182776	-23.845965	695.610617	941.363071	-86.339623	473.637652	1153.973845	-533.404838	691.474947	942.349932	-497.724824	-62.200325	1177.632192	-285.485027	91.972038	1189.450853	-437.220268	104.275025	1161.817552	-125.029508	128.780705	1139.309601	-395.175120	146.358756	1107.893628	-170.632323	-27.796141	1212.159269	-237.512726	-35.146903	1223.092371	-313.355079	47.583083	1101.180397	-112.607997	52.582417	1124.831107	-484.207567	119.864615	950.945371	-90.467795	168.210787	878.357706	-103.029658	178.677854	793.461190	-107.876422	198.153496	891.924539	-122.199908	212.579759	652.484123	-134.648711	183.430268	635.649609	-244.607712	147.432754	541.334204	-107.597719	132.053172	453.114702	-120.546863	71.889053	388.924042	-125.788937	158.987959	442.468269	-146.583461	18.546441	244.267857	-133.926424	35.779469	249.866581	-221.020054	-51.904432	207.414023	-173.375380	247.596600	205.279274	-161.207718	181.499407	177.777468	-106.013604	115.408171	1071.795963	-488.686883	200.950213	1061.860228	-493.771373	214.839112	1092.376569	-478.220688	272.090110	1008.771738	-504.773079	409.489282	923.924291	-485.928082	445.709242	907.082767	-377.569474	369.225784	816.841410	-500.788307	344.943677	735.770287	-476.235619	281.514950	674.106823	-469.617447	369.454969	727.437738	-446.977689	200.453311	553.955823	-450.696062	205.003280	569.130002	-363.990840	118.332473	536.128115	-404.004194	417.565416	504.614314	-421.317375	342.650849	471.143784	-479.690889	-184.909559	929.930472	-286.655759	-17.437813	79.256668	-485.466975	-17.260158	79.011385	-84.727637	
1	0.0050	471.362008	1461.985297	-133.324746	471.297865	1443.645393	-434.706650	454.979700	1508.453054	-288.624032	461.330705	1361.063648	-282.936221	489.737766	1152.223893	-23.884411	695.600422	941.362424	-86.379288	473.622203	1153.967313	-533.437215	691.460720	942.336706	-497.760232	-62.175193	1177.642292	-285.515085	91.948337	1189.432843	-437.206818	104.291488	1161.785545	-125.068243	128.704978	1139.168919	-394.939725	146.367728	1107.884600	-170.641198	-27.748150	1212.168426	-237.604734	-35.262451	1223.246252	-313.285133	47.597416	1101.175903	-112.652377	52.589986	1124.825768	-484.242037	119.894109	950.945601	-90.501094	168.217015	878.365386	-103.035003	178.704164	793.477130	-107.898745	198.193605	891.923804	-122.227764	212.600979	652.496234	-134.674383	183.460450	635.685752	-244.606965	147.490948	541.348835	-107.617490	132.077886	453.106466	-120.553483	71.926221	388.927197	-125.783493	159.039587	442.481996	-146.606997	18.601488	244.268310	-133.929137	35.821663	249.885203	-221.035701	-51.848322	207.437438	-173.388611	247.651916	205.234905	-161.209785	181.547508	177.730830	-106.023307	115.415413	1071.781778	-488.725684	200.931644	1061.853059	-493.842641	214.847228	1092.367118	-478.261470	272.072955	1008.785232	-504.823380	409.488740	923.929011	-485.963425	445.686606	907.130845	-377.557023	369.199339	816.883942	-500.835119	344.928972	735.799264	-476.259725	281.501094	674.139593	-469.650177	369.439733	727.453346	-447.002030	200.428450	553.986983	-450.689031	204.953529	569.169552	-364.009329	118.315601	536.183094	-404.009803	417.531188	504.632427	-421.311546	342.613588	471.155465	-479.682230	-184.912588	929.930907	-286.664348	-17.451353	79.249538	-485.473080	-17.272049	79.020490	-84.723372	
2	0.0100	471.425818	1462.022000	-133.364705	471.314901	1443.663018	-434.776844	454.988616	1508.458443	-288.705583	461.365783	1361.072640	-282.985424	489.789827	1152.257779	-23.915839	695.598389	941.355716	-86.434180	473.644727	1153.979844	-533.477274	691.463286	942.329740	-497.774687	-62.162329	1177.631905	-285.543566	91.994596	1189.418420	-437.263549	104.321638	1161.782996	-125.094745	128.648260	1139.103889	-394.835836	146.379186	1107.875369	-170.692996	-27.723695	1212.158798	-237.631244	-35.124336	1223.091073	-313.407017	47.618290	1101.187461	-112.682956	52.599784	1124.803953	-484.257759	119.911099	950.938796	-90.517179	168.235829	878.356644	-103.059130	178.729439	793.479792	-107.905122	198.197082	891.917739	-122.234075	212.629219	652.507543	-134.682328	183.497768	635.691602	-244.607645	147.544047	541.343751	-107.632722	132.150360	453.114021	-120.549900	71.984902	388.933077	-125.788842	159.106590	442.476366	-146.591950	18.656625	244.256203	-133.930802	35.893080	249.873482	-221.048564	-51.790402	207.452837	-173.366447	247.701732	205.212676	-161.204961	181.615397	177.714984	-106.022730	115.398977	1071.780139	-488.748021	200.938656	1061.853080	-493.877960	214.842561	1092.377523	-478.305409	272.088665	1008.768257	-504.842392	409.504039	923.948135	-486.012673	445.708236	907.173786	-377.582131	369.212959	816.898019	-500.864404	344.918781	735.836559	-476.287218	281.455368	674.139537	-469.663588	369.436334	727.472717	-447.014126	200.404636	554.024828	-450.697966	204.948708	569.218954	-364.016682	118.279213	536.230448	-403.992085	417.495298	504.643944	-421.317612	342.582513	471.170505	-479.668758	-184.908679	929.930492	-286.672670	-17.450062	79.242228	-485.452411	-17.281894	79.026956	-84.734062	
3	0.0150	471.469074	1462.014870	-133.451444	471.362979	1443.834613	-436.125451	454.991810	1508.466953	-288.763558	461.412198	1361.074436	-283.034115	489.818285	1152.295825	-23.946447	695.589427	941.359812	-86.479780	473.743721	1153.905891	-533.429540	691.466950	942.320454	-497.812197	-61.966341	1177.972033	-284.203860	91.984915	1189.417131	-437.259463	104.857394	1162.545449	-125.629311	128.667267	1139.124296	-394.898705	146.454463	1108.066785	-170.397283	-27.694541	1212.144805	-237.673970	-35.244161	1223.194820	-313.389563	47.637183	1101.170550	-112.715504	52.589678	1124.797739	-484.293777	119.935807	950.939758	-90.541386	168.798122	878.108471	-102.515514	178.770002	793.477274	-107.924715	198.219615	891.913201	-122.249566	212.668527	652.502351	-134.682652	183.592058	635.653292	-244.615342	147.596728	541.357927	-107.622281	130.957124	452.084326	-121.534118	72.043170	388.931876	-125.775812	158.994510	442.296902	-146.830900	18.637314	244.327430	-133.547133	35.918674	249.882249	-221.034039	-51.734237	207.456051	-173.366864	247.778016	205.179648	-161.202096	181.677612	177.657874	-106.034020	115.550216	1072.068353	-489.033377	200.928599	1061.854510	-493.908218	214.615508	1092.561971	-478.720226	272.089370	1008.770628	-504.879939	409.449460	924.017955	-486.017591	445.726360	907.175536	-377.615934	369.211501	816.918813	-500.884301	344.945166	735.869323	-476.426372	281.539301	673.897025	-469.148862	369.472821	727.549986	-447.235474	200.442495	553.880498	-450.346272	204.819760	569.352508	-363.873101	118.245856	536.287559	-403.988844	417.452934	504.657471	-421.333163	342.607274	471.120246	-479.629306	-184.994940	929.929304	-286.979039	-17.447994	79.241272	-485.458322	-17.279700	79.024676	-84.734531	
4	0.0200	471.525963	1462.011868	-133.493729	471.360641	1443.813649	-436.141471	455.020021	1508.539021	-288.852204	461.448377	1361.076295	-283.087348	489.917816	1152.380343	-23.943047	695.595513	941.356970	-86.551471	473.768686	1153.917233	-533.448740	691.500864	942.352889	-497.870195	-62.002579	1177.934176	-284.177385	91.983401	1189.398645	-437.235816	104.783301	1162.311651	-125.954473	128.670482	1139.112107	-394.906576	146.459984	1108.016312	-170.484574	-27.640515	1212.274485	-237.762988	-35.331905	1223.430555	-313.130161	47.645891	1101.275046	-112.678373	52.530046	1124.651387	-484.191596	119.988093	950.982094	-90.533856	168.916774	878.235345	-102.742760	178.800390	793.473971	-107.925285	198.250337	891.939013	-122.273057	212.715299	652.511409	-134.662299	183.576627	635.741991	-244.655714	147.694871	541.375613	-107.632589	131.062968	452.099395	-121.530013	71.380976	389.242496	-125.007436	159.131681	442.315320	-146.813596	18.656820	244.440126	-133.155729	36.102886	250.000575	-221.163564	-51.593940	207.505122	-173.408451	247.867482	205.144040	-161.278831	181.817568	177.659511	-106.284885	115.570898	1072.054959	-489.040002	200.847844	1061.689073	-493.763123	214.550681	1092.500193	-478.647318	272.012660	1008.712410	-504.740962	409.445449	924.015344	-485.998112	445.750411	907.214724	-377.670956	369.206526	816.921303	-500.852953	344.956051	735.898043	-476.437666	281.493419	673.926087	-469.069772	369.534426	727.474079	-447.206255	200.390665	553.878902	-450.213291	204.861696	569.429556	-363.853027	118.183934	536.374235	-404.094377	417.446186	504.695946	-421.333720	342.583126	471.182735	-479.641641	-184.941131	929.946641	-286.909637	-17.184312	79.544283	-485.265741	-17.272101	79.152728	-84.577776	
